<svg width="28" height="29" viewBox="0 0 28 29" fill="none" xmlns="http://www.w3.org/2000/svg">
<path d="M2.97656 12.4297C1.35938 13.1797 1.80469 15.3477 3.58594 15.3594L12.1289 15.3945C12.2695 15.3945 12.3047 15.4297 12.3047 15.5703L12.3281 24.043C12.3398 25.8945 14.543 26.2227 15.3281 24.5234L23.9883 5.90234C24.7852 4.16797 23.4258 2.9375 21.7031 3.74609L2.97656 12.4297ZM5.01562 13.5312C4.96875 13.5312 4.95703 13.4844 5.01562 13.4609L21.8555 5.75C21.9375 5.71484 21.9727 5.73828 21.9375 5.83203L14.1797 22.6602C14.168 22.707 14.1211 22.6953 14.1211 22.6484L14.1797 14.3633C14.1797 13.8477 13.8164 13.4844 13.2891 13.4844L5.01562 13.5312Z" fill="#FFC857"/>
</svg>
