<svg width="30" height="29" viewBox="0 0 30 29" fill="none" xmlns="http://www.w3.org/2000/svg">
<path d="M6.66797 25.3438H22.6758C25.125 25.3438 26.3438 24.125 26.3438 21.7109V7.40234C26.3438 4.98828 25.125 3.76953 22.6758 3.76953H6.66797C4.21875 3.76953 2.98828 4.97656 2.98828 7.40234V21.7109C2.98828 24.1367 4.21875 25.3438 6.66797 25.3438ZM6.49219 23.457C5.44922 23.457 4.875 22.9062 4.875 21.8164V10.7656C4.875 9.6875 5.44922 9.125 6.49219 9.125H22.8281C23.8711 9.125 24.457 9.6875 24.457 10.7656V21.8164C24.457 22.9062 23.8711 23.457 22.8281 23.457H6.49219ZM12.3867 13.332H13.0781C13.4883 13.332 13.6172 13.2148 13.6172 12.8047V12.1133C13.6172 11.7031 13.4883 11.5742 13.0781 11.5742H12.3867C11.9766 11.5742 11.8359 11.7031 11.8359 12.1133V12.8047C11.8359 13.2148 11.9766 13.332 12.3867 13.332ZM16.2773 13.332H16.9688C17.3789 13.332 17.5195 13.2148 17.5195 12.8047V12.1133C17.5195 11.7031 17.3789 11.5742 16.9688 11.5742H16.2773C15.8672 11.5742 15.7266 11.7031 15.7266 12.1133V12.8047C15.7266 13.2148 15.8672 13.332 16.2773 13.332ZM20.168 13.332H20.8594C21.2695 13.332 21.4102 13.2148 21.4102 12.8047V12.1133C21.4102 11.7031 21.2695 11.5742 20.8594 11.5742H20.168C19.7578 11.5742 19.6289 11.7031 19.6289 12.1133V12.8047C19.6289 13.2148 19.7578 13.332 20.168 13.332ZM8.49609 17.1641H9.17578C9.59766 17.1641 9.72656 17.0469 9.72656 16.6367V15.9453C9.72656 15.5352 9.59766 15.418 9.17578 15.418H8.49609C8.07422 15.418 7.94531 15.5352 7.94531 15.9453V16.6367C7.94531 17.0469 8.07422 17.1641 8.49609 17.1641ZM12.3867 17.1641H13.0781C13.4883 17.1641 13.6172 17.0469 13.6172 16.6367V15.9453C13.6172 15.5352 13.4883 15.418 13.0781 15.418H12.3867C11.9766 15.418 11.8359 15.5352 11.8359 15.9453V16.6367C11.8359 17.0469 11.9766 17.1641 12.3867 17.1641ZM16.2773 17.1641H16.9688C17.3789 17.1641 17.5195 17.0469 17.5195 16.6367V15.9453C17.5195 15.5352 17.3789 15.418 16.9688 15.418H16.2773C15.8672 15.418 15.7266 15.5352 15.7266 15.9453V16.6367C15.7266 17.0469 15.8672 17.1641 16.2773 17.1641ZM20.168 17.1641H20.8594C21.2695 17.1641 21.4102 17.0469 21.4102 16.6367V15.9453C21.4102 15.5352 21.2695 15.418 20.8594 15.418H20.168C19.7578 15.418 19.6289 15.5352 19.6289 15.9453V16.6367C19.6289 17.0469 19.7578 17.1641 20.168 17.1641ZM8.49609 21.0078H9.17578C9.59766 21.0078 9.72656 20.8789 9.72656 20.4688V19.7773C9.72656 19.3672 9.59766 19.25 9.17578 19.25H8.49609C8.07422 19.25 7.94531 19.3672 7.94531 19.7773V20.4688C7.94531 20.8789 8.07422 21.0078 8.49609 21.0078ZM12.3867 21.0078H13.0781C13.4883 21.0078 13.6172 20.8789 13.6172 20.4688V19.7773C13.6172 19.3672 13.4883 19.25 13.0781 19.25H12.3867C11.9766 19.25 11.8359 19.3672 11.8359 19.7773V20.4688C11.8359 20.8789 11.9766 21.0078 12.3867 21.0078ZM16.2773 21.0078H16.9688C17.3789 21.0078 17.5195 20.8789 17.5195 20.4688V19.7773C17.5195 19.3672 17.3789 19.25 16.9688 19.25H16.2773C15.8672 19.25 15.7266 19.3672 15.7266 19.7773V20.4688C15.7266 20.8789 15.8672 21.0078 16.2773 21.0078Z" fill="#FFC857"/>
</svg>
