<svg width="91" height="85" viewBox="0 0 91 85" fill="none" xmlns="http://www.w3.org/2000/svg">
<rect x="0.5" y="0.5" width="89.4839" height="84" rx="16.5" stroke="#FFC857"/>
<path d="M60.4808 41.2273H52.3465V59.5321H44.9452L56.9563 72.9568L67.6642 59.5321H60.5302L60.4808 41.2273Z" fill="#FFC857"/>
<path d="M44.5966 53.099C41.4465 53.099 38.5431 52.6056 35.8863 51.6189C33.2676 50.5941 30.9714 49.1519 28.9978 47.2922C27.0622 45.4325 25.5441 43.2501 24.4434 40.7452C23.3807 38.2403 22.8494 35.4887 22.8494 32.4904C22.8494 29.4921 23.3807 26.7404 24.4434 24.2355C25.5441 21.7306 27.0812 19.5483 29.0547 17.6886C31.0283 15.8289 33.3435 14.4056 36.0002 13.4188C38.6569 12.3941 41.5793 11.8817 44.7674 11.8817C48.2971 11.8817 51.4662 12.47 54.2747 13.6465C57.1212 14.8231 59.5123 16.531 61.4479 18.7702L55.5272 24.2355C54.085 22.7174 52.5099 21.5978 50.802 20.8767C49.0941 20.1176 47.2344 19.7381 45.2229 19.7381C43.2872 19.7381 41.5224 20.0417 39.9284 20.6489C38.3343 21.2562 36.949 22.1291 35.7725 23.2677C34.6339 24.4063 33.742 25.7537 33.0968 27.3097C32.4895 28.8658 32.1859 30.5927 32.1859 32.4904C32.1859 34.3501 32.4895 36.058 33.0968 37.6141C33.742 39.1702 34.6339 40.5365 35.7725 41.713C36.949 42.8516 38.3154 43.7246 39.8714 44.3318C41.4655 44.9391 43.2113 45.2427 45.109 45.2427C46.9308 45.2427 48.6956 44.958 50.4035 44.3887C52.1493 43.7815 53.8383 42.7757 55.4703 41.3715L60.4808 47.7869C58.3174 49.4189 56.0206 50.9167 53.1361 51.7896C50.2896 52.6626 47.4431 53.099 44.5966 53.099ZM52.2822 46.8367V31.8641H60.4808V47.7869L52.2822 46.8367Z" fill="#FFC857"/>
</svg>
