<svg width="20" height="19" viewBox="0 0 20 19" fill="none" xmlns="http://www.w3.org/2000/svg">
<path d="M5.28129 7.56122C6.82501 10.3587 9.05171 12.4808 11.9948 13.9509C12.2183 13.6809 12.4419 13.4117 12.6642 13.1417C12.9261 12.8239 13.1843 12.5035 13.4478 12.1869C13.9019 11.6418 14.5548 11.4935 15.2093 11.8093C16.5575 12.46 17.9033 13.1166 19.2428 13.7834C20.0058 14.1634 20.2191 14.9491 19.7592 15.6421C19.2152 16.4619 18.6671 17.2798 18.1078 18.0906C17.615 18.8047 16.899 19.0594 16.0176 18.9886C14.8319 18.8935 13.6746 18.6971 12.5553 18.2952C10.7711 17.6546 9.13626 16.7683 7.63626 15.6582C4.98681 13.6966 2.84672 11.3303 1.36692 8.45263C0.825399 7.39922 0.38245 6.30747 0.183247 5.14411C0.0912752 4.60645 0.0236367 4.06097 0.00177799 3.51705C-0.0270921 2.8033 0.296253 2.23121 0.92562 1.83129C1.76244 1.29911 2.60379 0.772804 3.44556 0.247668C4.19247 -0.218381 5.05486 -0.0117701 5.46688 0.74189C6.16388 2.01638 6.85264 3.29518 7.53851 4.57515C7.83917 5.13668 7.68451 5.77451 7.15908 6.16817C6.59941 6.58765 6.03397 6.9997 5.471 7.41566C5.41203 7.45909 5.3547 7.50488 5.28046 7.56201L5.28129 7.56122Z" fill="#FFC857"/>
</svg>
