<svg width="22" height="16" viewBox="0 0 22 16" fill="none" xmlns="http://www.w3.org/2000/svg">
<path d="M10.9793 14.9989C8.27698 14.9989 5.57461 15.0013 2.87223 14.9989C1.53327 14.9989 1.00794 14.491 1.0055 13.1656C0.998167 9.71668 0.998167 6.27257 1.0055 2.82605C1.00794 1.51516 1.54793 1 2.88445 1C8.28919 1 13.6939 1 19.0987 1.00242C20.4841 1.00242 20.9972 1.51033 20.9972 2.87442C21.0021 6.29676 20.9996 9.7191 20.9972 13.1414C20.9972 14.5031 20.489 14.9941 19.084 14.9965C16.3816 15.0013 13.6793 14.9965 10.9769 14.9965L10.9793 14.9989ZM20.2055 1.79572C19.7559 1.70865 19.5092 1.61916 19.2624 1.61916C13.7599 1.60949 8.25987 1.60949 2.7574 1.61916C2.4984 1.61916 2.2394 1.72558 1.87534 1.80782C2.07325 2.03275 2.15633 2.14642 2.2565 2.24075C4.47509 4.33527 6.68145 6.44671 8.92447 8.51705C10.6715 10.1278 11.3141 10.1303 13.0635 8.53156C14.8692 6.87965 16.6284 5.17936 18.4072 3.50084C18.9496 2.9881 19.4896 2.47535 20.2031 1.80056L20.2055 1.79572ZM1.7776 14.2177C2.26139 14.3024 2.51306 14.3846 2.76717 14.3846C8.26476 14.3919 13.7648 14.3919 19.2624 14.3846C19.5165 14.3846 19.7731 14.2733 20.1811 14.1766C18.0749 12.1909 16.1129 10.3383 14.0458 8.39128C12.0202 10.9671 9.94824 10.8945 7.94468 8.40095C5.88003 10.3504 3.91556 12.203 1.77516 14.2201L1.7776 14.2177ZM14.5467 8.00188C16.4818 9.8231 18.351 11.5838 20.3155 13.4317V2.56484C18.3388 4.42959 16.4794 6.18308 14.5467 8.0043V8.00188ZM1.69209 2.56968V13.4365C3.6761 11.5645 5.54529 9.80133 7.45845 7.99946C5.51108 6.16615 3.65411 4.4175 1.69209 2.56968Z" fill="#FFC857" stroke="#FFC857"/>
</svg>
