<svg width="20" height="20" viewBox="0 0 20 20" fill="none" xmlns="http://www.w3.org/2000/svg">
<path d="M1.0201 19.0013C1.97893 18.025 2.71215 16.9648 3.25078 15.7703C3.66815 14.8443 3.52715 14.1422 2.75727 13.482C1.50233 12.4022 0.563246 11.1182 0.188176 9.49289C-0.38148 7.02837 0.368661 4.92192 2.08045 3.12878C3.64559 1.4867 5.62811 0.577546 7.84469 0.199896C10.8171 -0.306435 13.6456 0.127163 16.2203 1.75246C18.1831 2.98891 19.5565 4.67295 19.9174 7.01998C20.2389 9.11524 19.6016 10.9531 18.2113 12.5309C16.4995 14.4695 14.2801 15.4598 11.7477 15.829C11.3952 15.8794 11.0286 15.8542 10.6873 15.9381C10.3207 16.0276 9.92591 16.1367 9.63544 16.3577C7.79675 17.7452 5.67323 18.3914 3.43973 18.7411C2.63882 18.867 1.82664 18.9174 1.0201 19.0013Z" fill="#FFC857"/>
</svg>
