<svg width="26" height="29" viewBox="0 0 26 29" fill="none" xmlns="http://www.w3.org/2000/svg">
<path d="M7.41797 25.7305H18.1406C19.8633 25.7305 20.7773 24.793 20.7773 22.9414V14.8672C20.7773 13.25 20.0742 12.3242 18.7266 12.125V9.28906C18.7266 4.88281 15.8438 2.75 12.7734 2.75C9.71484 2.75 6.83203 4.88281 6.83203 9.28906V12.125C5.49609 12.3242 4.78125 13.2383 4.78125 14.8672V22.9414C4.78125 24.793 5.69531 25.7305 7.41797 25.7305ZM8.69531 9.04297C8.69531 6.07812 10.582 4.51953 12.7734 4.51953C14.9648 4.51953 16.875 6.07812 16.875 9.04297V12.0898H8.69531V9.04297ZM7.47656 23.9609C6.97266 23.9609 6.67969 23.6445 6.67969 23.0703V14.7383C6.67969 14.1641 6.97266 13.8594 7.47656 13.8594H18.082C18.5977 13.8594 18.8789 14.1641 18.8789 14.7383V23.0703C18.8789 23.6445 18.5977 23.9609 18.082 23.9609H7.47656Z" fill="#FFC857"/>
</svg>
