<svg width="165" height="40" viewBox="0 0 165 40" fill="none" xmlns="http://www.w3.org/2000/svg">
<rect width="165" height="39.1164" fill="black"/>
<path d="M140.429 12.6078H135.129L135.149 30.1316L129.634 30.0665L138.039 39.1164L145.797 30.1316L140.429 30.0665V12.6078Z" fill="#FFC857"/>
<path d="M130.288 25.8333C128.315 25.8333 126.496 25.5241 124.832 24.9056C123.192 24.2634 121.754 23.3594 120.518 22.1938C119.305 21.0282 118.354 19.6605 117.665 18.0905C116.999 16.5205 116.667 14.7959 116.667 12.9167C116.667 11.0374 116.999 9.31285 117.665 7.74286C118.354 6.17288 119.317 4.8051 120.553 3.6395C121.789 2.47391 123.24 1.58187 124.904 0.963396C126.568 0.321132 128.398 0 130.395 0C132.606 0 134.591 0.368708 136.35 1.10612C138.133 1.84354 139.63 2.91398 140.843 4.31745L137.134 7.74286C136.231 6.79136 135.244 6.08963 134.175 5.63766C133.105 5.16191 131.94 4.92404 130.68 4.92404C129.468 4.92404 128.362 5.11433 127.364 5.49494C126.366 5.87554 125.498 6.42265 124.761 7.13628C124.048 7.84991 123.489 8.69437 123.085 9.66966C122.705 10.645 122.514 11.7273 122.514 12.9167C122.514 14.0823 122.705 15.1527 123.085 16.128C123.489 17.1033 124.048 17.9596 124.761 18.6971C125.498 19.4107 126.354 19.9578 127.328 20.3384C128.327 20.719 129.42 20.9093 130.609 20.9093C131.75 20.9093 132.855 20.7309 133.925 20.3741C135.018 19.9935 136.076 19.3631 137.098 18.483L140.379 22.6577C139.024 23.6806 137.443 24.4656 135.637 25.0127C133.854 25.5598 132.071 25.8333 130.288 25.8333ZM135.102 21.9084V12.5242H140.379V22.6577L135.102 21.9084Z" fill="#FFC857"/>
<path d="M154.481 25.6906C152.437 25.6906 150.618 25.2624 149.025 24.4061C147.456 23.5497 146.208 22.3841 145.281 20.9093C144.378 19.4107 143.926 17.7099 143.926 15.8069C143.926 13.8801 144.378 12.1793 145.281 10.7044C146.208 9.2058 147.456 8.04021 149.025 7.20764C150.618 6.35129 152.437 5.92311 154.481 5.92311C156.502 5.92311 158.308 6.35129 159.901 7.20764C161.494 8.04021 162.742 9.19391 163.645 10.6687C164.548 12.1436 165 13.8563 165 15.8069C165 17.7099 164.548 19.4107 163.645 20.9093C162.742 22.3841 161.494 23.5497 159.901 24.4061C158.308 25.2624 156.502 25.6906 154.481 25.6906ZM154.481 21.1234C155.408 21.1234 156.24 20.9093 156.977 20.4811C157.714 20.053 158.296 19.4464 158.724 18.6614C159.152 17.8526 159.366 16.9011 159.366 15.8069C159.366 14.6888 159.152 13.7373 158.724 12.9524C158.296 12.1674 157.714 11.5608 156.977 11.1326C156.24 10.7044 155.408 10.4903 154.481 10.4903C153.554 10.4903 152.722 10.7044 151.985 11.1326C151.248 11.5608 150.654 12.1674 150.202 12.9524C149.774 13.7373 149.56 14.6888 149.56 15.8069C149.56 16.9011 149.774 17.8526 150.202 18.6614C150.654 19.4464 151.248 20.053 151.985 20.4811C152.722 20.9093 153.554 21.1234 154.481 21.1234Z" fill="#FFC857"/>
<path d="M99.2333 7.49989C100.656 7.49989 101.922 7.78878 103.033 8.36656C104.167 8.92212 105.056 9.78878 105.7 10.9666C106.344 12.1221 106.667 13.611 106.667 15.4332V25.6999H101.467V16.2332C101.467 14.7888 101.144 13.7221 100.5 13.0332C99.8777 12.3443 98.9888 11.9999 97.8333 11.9999C97.0111 11.9999 96.2666 12.1777 95.6 12.5332C94.9555 12.8666 94.4444 13.3888 94.0666 14.0999C93.7111 14.811 93.5333 15.7221 93.5333 16.8332V25.6999H88.3333V7.76656H93.3V12.7332L92.3666 11.2332C93.0111 10.0332 93.9333 9.111 95.1333 8.46656C96.3333 7.82212 97.7 7.49989 99.2333 7.49989Z" fill="white"/>
<path d="M0 25.5667V2.23335H10.1C12.1889 2.23335 13.9889 2.57779 15.5 3.26668C17.0111 3.93335 18.1778 4.90002 19 6.16668C19.8222 7.43335 20.2333 8.94446 20.2333 10.7C20.2333 12.4334 19.8222 13.9334 19 15.2C18.1778 16.4667 17.0111 17.4445 15.5 18.1334C13.9889 18.8 12.1889 19.1334 10.1 19.1334H3L5.4 16.7V25.5667H0ZM5.4 17.3L3 14.7334H9.8C11.4667 14.7334 12.7111 14.3778 13.5333 13.6667C14.3556 12.9556 14.7667 11.9667 14.7667 10.7C14.7667 9.41113 14.3556 8.41113 13.5333 7.70002C12.7111 6.98891 11.4667 6.63335 9.8 6.63335H3L5.4 4.06668V17.3Z" fill="white"/>
<path d="M34.5591 25.5667V22.0667L34.2258 21.3V15.0334C34.2258 13.9222 33.8813 13.0556 33.1925 12.4334C32.5258 11.8111 31.4925 11.5 30.0925 11.5C29.1369 11.5 28.1925 11.6556 27.2591 11.9667C26.348 12.2556 25.5702 12.6556 24.9258 13.1667L23.0591 9.53335C24.0369 8.84446 25.2147 8.31113 26.5925 7.93335C27.9702 7.55557 29.3702 7.36668 30.7925 7.36668C33.5258 7.36668 35.648 8.01113 37.1591 9.30002C38.6702 10.5889 39.4258 12.6 39.4258 15.3334V25.5667H34.5591ZM29.0925 25.8334C27.6925 25.8334 26.4925 25.6 25.4925 25.1334C24.4925 24.6445 23.7258 23.9889 23.1925 23.1667C22.6591 22.3445 22.3925 21.4222 22.3925 20.4C22.3925 19.3334 22.648 18.4 23.1591 17.6C23.6925 16.8 24.5258 16.1778 25.6591 15.7334C26.7925 15.2667 28.2702 15.0334 30.0925 15.0334H34.8591V18.0667H30.6591C29.4369 18.0667 28.5925 18.2667 28.1258 18.6667C27.6813 19.0667 27.4591 19.5667 27.4591 20.1667C27.4591 20.8334 27.7147 21.3667 28.2258 21.7667C28.7591 22.1445 29.4813 22.3334 30.3925 22.3334C31.2591 22.3334 32.0369 22.1334 32.7258 21.7334C33.4147 21.3111 33.9147 20.7 34.2258 19.9L35.0258 22.3C34.648 23.4556 33.9591 24.3334 32.9591 24.9334C31.9591 25.5334 30.6702 25.8334 29.0925 25.8334Z" fill="white"/>
<path d="M44.132 25.5667V7.63335H49.0987V12.7L48.3987 11.2334C48.932 9.96668 49.7876 9.01113 50.9654 8.36668C52.1432 7.70002 53.5765 7.36668 55.2654 7.36668V12.1667C55.0432 12.1445 54.8432 12.1334 54.6654 12.1334C54.4876 12.1111 54.2987 12.1 54.0987 12.1C52.6765 12.1 51.5209 12.5111 50.632 13.3334C49.7654 14.1334 49.332 15.3889 49.332 17.1V25.5667H44.132Z" fill="white"/>
<path d="M62.6899 21.9L62.8232 15.5667L71.1899 7.63335H77.3899L69.3565 15.8L66.6565 18L62.6899 21.9ZM58.3899 25.5667V0.833347H63.5899V25.5667H58.3899ZM71.7565 25.5667L65.6899 18.0334L68.9565 14L78.0565 25.5667H71.7565Z" fill="white"/>
</svg>
