<svg width="351" height="170" viewBox="0 0 351 170" fill="none" xmlns="http://www.w3.org/2000/svg">
<rect width="351" height="170" rx="20" fill="#212121"/>
<rect y="50" width="232" height="48" fill="#404040"/>
<path d="M106.97 84.9971L115.28 63.9971H119.6L127.85 84.9971H122.69L118.73 74.3471C118.57 73.9271 118.41 73.4771 118.25 72.9971C118.09 72.5171 117.93 72.0271 117.77 71.5271C117.61 71.0071 117.45 70.5071 117.29 70.0271C117.15 69.5271 117.03 69.0671 116.93 68.6471L117.83 68.6171C117.71 69.1171 117.57 69.6071 117.41 70.0871C117.27 70.5671 117.12 71.0471 116.96 71.5271C116.82 71.9871 116.66 72.4571 116.48 72.9371C116.3 73.3971 116.13 73.8771 115.97 74.3771L112.01 84.9971H106.97ZM110.93 80.9771L112.52 77.1371H122.18L123.74 80.9771H110.93Z" fill="#FFC857"/>
<rect x="236" y="50" width="115" height="48" fill="#404040"/>
<path d="M285.847 84.9971V63.9971H295.117C296.557 63.9971 297.777 64.2071 298.777 64.6271C299.777 65.0271 300.527 65.6171 301.027 66.3971C301.547 67.1571 301.807 68.0771 301.807 69.1571C301.807 70.3571 301.507 71.3671 300.907 72.1871C300.327 73.0071 299.477 73.5571 298.357 73.8371L298.297 73.2671C299.237 73.4671 300.047 73.8171 300.727 74.3171C301.427 74.8171 301.967 75.4371 302.347 76.1771C302.727 76.8971 302.917 77.7171 302.917 78.6371C302.917 79.6971 302.737 80.6271 302.377 81.4271C302.017 82.2071 301.497 82.8671 300.817 83.4071C300.137 83.9471 299.337 84.3471 298.417 84.6071C297.517 84.8671 296.517 84.9971 295.417 84.9971H285.847ZM290.647 80.7371H295.237C295.797 80.7371 296.267 80.6471 296.647 80.4671C297.047 80.2871 297.357 80.0271 297.577 79.6871C297.797 79.3271 297.907 78.8971 297.907 78.3971C297.907 77.9371 297.787 77.5471 297.547 77.2271C297.327 76.9071 297.007 76.6671 296.587 76.5071C296.167 76.3271 295.667 76.2371 295.087 76.2371H290.647V80.7371ZM290.647 72.4271H294.397C294.917 72.4271 295.357 72.3471 295.717 72.1871C296.097 72.0071 296.377 71.7671 296.557 71.4671C296.757 71.1471 296.857 70.7671 296.857 70.3271C296.857 69.6871 296.637 69.1871 296.197 68.8271C295.757 68.4471 295.097 68.2571 294.217 68.2571H290.647V72.4271Z" fill="#FFC857"/>
<rect y="101.526" width="113.995" height="48.0916" fill="#404040"/>
<path d="M49.8412 136.651V115.651H59.1112C60.5512 115.651 61.7712 115.861 62.7712 116.281C63.7712 116.681 64.5212 117.271 65.0212 118.051C65.5412 118.811 65.8012 119.731 65.8012 120.811C65.8012 122.011 65.5012 123.021 64.9012 123.841C64.3212 124.661 63.4712 125.211 62.3512 125.491L62.2912 124.921C63.2312 125.121 64.0412 125.471 64.7212 125.971C65.4212 126.471 65.9612 127.091 66.3412 127.831C66.7212 128.551 66.9112 129.371 66.9112 130.291C66.9112 131.351 66.7312 132.281 66.3712 133.081C66.0112 133.861 65.4912 134.521 64.8112 135.061C64.1312 135.601 63.3312 136.001 62.4112 136.261C61.5112 136.521 60.5112 136.651 59.4112 136.651H49.8412ZM54.6412 132.391H59.2312C59.7912 132.391 60.2612 132.301 60.6412 132.121C61.0412 131.941 61.3512 131.681 61.5712 131.341C61.7912 130.981 61.9012 130.551 61.9012 130.051C61.9012 129.591 61.7812 129.201 61.5412 128.881C61.3212 128.561 61.0012 128.321 60.5812 128.161C60.1612 127.981 59.6612 127.891 59.0812 127.891H54.6412V132.391ZM54.6412 124.081H58.3912C58.9112 124.081 59.3512 124.001 59.7112 123.841C60.0912 123.661 60.3712 123.421 60.5512 123.121C60.7512 122.801 60.8512 122.421 60.8512 121.981C60.8512 121.341 60.6312 120.841 60.1912 120.481C59.7512 120.101 59.0912 119.911 58.2112 119.911H54.6412V124.081Z" fill="#FFC857"/>
<rect x="118" y="102" width="233" height="48" fill="#404040"/>
<path d="M237.18 136.951C235.6 136.951 234.14 136.691 232.8 136.171C231.48 135.631 230.33 134.881 229.35 133.921C228.37 132.941 227.61 131.791 227.07 130.471C226.55 129.131 226.29 127.661 226.29 126.061C226.29 124.501 226.57 123.061 227.13 121.741C227.69 120.421 228.46 119.281 229.44 118.321C230.44 117.341 231.61 116.581 232.95 116.041C234.31 115.501 235.79 115.231 237.39 115.231C238.39 115.231 239.37 115.361 240.33 115.621C241.29 115.881 242.18 116.271 243 116.791C243.84 117.291 244.56 117.891 245.16 118.591L242.04 122.161C241.62 121.721 241.17 121.341 240.69 121.021C240.23 120.681 239.72 120.421 239.16 120.241C238.6 120.061 238 119.971 237.36 119.971C236.56 119.971 235.8 120.121 235.08 120.421C234.38 120.701 233.76 121.111 233.22 121.651C232.7 122.171 232.29 122.811 231.99 123.571C231.69 124.331 231.54 125.181 231.54 126.121C231.54 127.041 231.69 127.881 231.99 128.641C232.29 129.381 232.71 130.021 233.25 130.561C233.79 131.101 234.44 131.511 235.2 131.791C235.98 132.071 236.84 132.211 237.78 132.211C238.42 132.211 239.03 132.121 239.61 131.941C240.19 131.761 240.72 131.521 241.2 131.221C241.7 130.901 242.14 130.541 242.52 130.141L244.98 134.041C244.48 134.601 243.81 135.101 242.97 135.541C242.15 135.981 241.23 136.331 240.21 136.591C239.21 136.831 238.2 136.951 237.18 136.951Z" fill="#FFC857"/>
<path d="M70.408 29L67.048 20.6H69.172L70.792 24.884C70.888 25.132 70.968 25.348 71.032 25.532C71.104 25.716 71.164 25.888 71.212 26.048C71.268 26.208 71.316 26.372 71.356 26.54C71.404 26.7 71.456 26.884 71.512 27.092H71.14C71.204 26.82 71.268 26.58 71.332 26.372C71.396 26.156 71.468 25.936 71.548 25.712C71.628 25.48 71.728 25.204 71.848 24.884L73.408 20.6H75.496L72.112 29H70.408ZM78.7161 29.12C78.0121 29.12 77.4001 28.98 76.8801 28.7C76.3601 28.412 75.9561 28.024 75.6681 27.536C75.3801 27.04 75.2361 26.476 75.2361 25.844C75.2361 25.356 75.3161 24.908 75.4761 24.5C75.6361 24.092 75.8601 23.74 76.1481 23.444C76.4361 23.14 76.7761 22.908 77.1681 22.748C77.5681 22.58 78.0041 22.496 78.4761 22.496C78.9241 22.496 79.3321 22.576 79.7001 22.736C80.0761 22.896 80.4001 23.12 80.6721 23.408C80.9441 23.696 81.1521 24.036 81.2961 24.428C81.4401 24.82 81.5041 25.248 81.4881 25.712L81.4761 26.228H76.4001L76.1241 25.148H79.9161L79.7121 25.376V25.136C79.6961 24.936 79.6321 24.76 79.5201 24.608C79.4161 24.448 79.2761 24.324 79.1001 24.236C78.9241 24.148 78.7241 24.104 78.5001 24.104C78.1881 24.104 77.9201 24.168 77.6961 24.296C77.4801 24.416 77.3161 24.596 77.2041 24.836C77.0921 25.068 77.0361 25.356 77.0361 25.7C77.0361 26.052 77.1081 26.36 77.2521 26.624C77.4041 26.88 77.6201 27.08 77.9001 27.224C78.1881 27.368 78.5281 27.44 78.9201 27.44C79.1921 27.44 79.4321 27.4 79.6401 27.32C79.8561 27.24 80.0881 27.104 80.3361 26.912L81.2361 28.184C80.9881 28.4 80.7241 28.576 80.4441 28.712C80.1641 28.848 79.8761 28.948 79.5801 29.012C79.2921 29.084 79.0041 29.12 78.7161 29.12ZM82.7114 29V22.628H84.5354L84.5954 23.924L84.2114 24.068C84.2994 23.78 84.4554 23.52 84.6794 23.288C84.9114 23.048 85.1874 22.856 85.5074 22.712C85.8274 22.568 86.1634 22.496 86.5154 22.496C86.9954 22.496 87.3994 22.596 87.7274 22.796C88.0554 22.988 88.3034 23.28 88.4714 23.672C88.6394 24.056 88.7234 24.528 88.7234 25.088V29H86.7914V25.244C86.7914 24.988 86.7554 24.776 86.6834 24.608C86.6114 24.44 86.4994 24.316 86.3474 24.236C86.2034 24.148 86.0234 24.108 85.8074 24.116C85.6394 24.116 85.4834 24.144 85.3394 24.2C85.1954 24.248 85.0714 24.324 84.9674 24.428C84.8634 24.524 84.7794 24.636 84.7154 24.764C84.6594 24.892 84.6314 25.032 84.6314 25.184V29H83.6834C83.4594 29 83.2674 29 83.1074 29C82.9474 29 82.8154 29 82.7114 29ZM92.5006 29.132C92.0286 29.132 91.6246 29.032 91.2886 28.832C90.9606 28.624 90.7046 28.328 90.5206 27.944C90.3446 27.56 90.2566 27.1 90.2566 26.564V22.628H92.1886V26.3C92.1886 26.556 92.2286 26.776 92.3086 26.96C92.3886 27.144 92.5086 27.288 92.6686 27.392C92.8286 27.488 93.0206 27.536 93.2446 27.536C93.4126 27.536 93.5646 27.508 93.7006 27.452C93.8446 27.396 93.9646 27.32 94.0606 27.224C94.1646 27.12 94.2446 27.004 94.3006 26.876C94.3566 26.74 94.3846 26.592 94.3846 26.432V22.628H96.3166V29H94.5046L94.4206 27.692L94.7806 27.548C94.6846 27.852 94.5246 28.124 94.3006 28.364C94.0766 28.596 93.8086 28.784 93.4966 28.928C93.1846 29.064 92.8526 29.132 92.5006 29.132ZM101.064 29.12C100.36 29.12 99.7478 28.98 99.2278 28.7C98.7078 28.412 98.3038 28.024 98.0158 27.536C97.7278 27.04 97.5838 26.476 97.5838 25.844C97.5838 25.356 97.6638 24.908 97.8238 24.5C97.9838 24.092 98.2078 23.74 98.4958 23.444C98.7838 23.14 99.1238 22.908 99.5158 22.748C99.9158 22.58 100.352 22.496 100.824 22.496C101.272 22.496 101.68 22.576 102.048 22.736C102.424 22.896 102.748 23.12 103.02 23.408C103.292 23.696 103.5 24.036 103.644 24.428C103.788 24.82 103.852 25.248 103.836 25.712L103.824 26.228H98.7478L98.4718 25.148H102.264L102.06 25.376V25.136C102.044 24.936 101.98 24.76 101.868 24.608C101.764 24.448 101.624 24.324 101.448 24.236C101.272 24.148 101.072 24.104 100.848 24.104C100.536 24.104 100.268 24.168 100.044 24.296C99.8278 24.416 99.6638 24.596 99.5518 24.836C99.4398 25.068 99.3838 25.356 99.3838 25.7C99.3838 26.052 99.4558 26.36 99.5998 26.624C99.7518 26.88 99.9678 27.08 100.248 27.224C100.536 27.368 100.876 27.44 101.268 27.44C101.54 27.44 101.78 27.4 101.988 27.32C102.204 27.24 102.436 27.104 102.684 26.912L103.584 28.184C103.336 28.4 103.072 28.576 102.792 28.712C102.512 28.848 102.224 28.948 101.928 29.012C101.64 29.084 101.352 29.12 101.064 29.12ZM109.107 29V20.6H114.963V22.34H111.087V27.26H115.083V29H109.107ZM110.067 25.556V23.9H114.423V25.556H110.067ZM116.637 29V22.628H118.461L118.521 23.924L118.137 24.068C118.225 23.78 118.381 23.52 118.605 23.288C118.837 23.048 119.113 22.856 119.433 22.712C119.753 22.568 120.089 22.496 120.441 22.496C120.921 22.496 121.325 22.596 121.653 22.796C121.981 22.988 122.229 23.28 122.397 23.672C122.565 24.056 122.649 24.528 122.649 25.088V29H120.717V25.244C120.717 24.988 120.681 24.776 120.609 24.608C120.537 24.44 120.425 24.316 120.273 24.236C120.129 24.148 119.949 24.108 119.733 24.116C119.565 24.116 119.409 24.144 119.265 24.2C119.121 24.248 118.997 24.324 118.893 24.428C118.789 24.524 118.705 24.636 118.641 24.764C118.585 24.892 118.557 25.032 118.557 25.184V29H117.609C117.385 29 117.193 29 117.033 29C116.873 29 116.741 29 116.637 29ZM124.782 29V21.02H126.702V29H124.782ZM123.654 24.308V22.628H127.938V24.308H123.654ZM129.036 29V22.628H130.86L130.944 24.704L130.584 24.308C130.68 23.964 130.836 23.656 131.052 23.384C131.276 23.112 131.536 22.896 131.832 22.736C132.128 22.576 132.444 22.496 132.78 22.496C132.924 22.496 133.056 22.508 133.176 22.532C133.304 22.556 133.42 22.584 133.524 22.616L132.996 24.74C132.908 24.684 132.788 24.64 132.636 24.608C132.492 24.568 132.34 24.548 132.18 24.548C132.004 24.548 131.84 24.58 131.688 24.644C131.536 24.7 131.408 24.784 131.304 24.896C131.2 25.008 131.116 25.14 131.052 25.292C130.996 25.444 130.968 25.616 130.968 25.808V29H129.036ZM136.579 29.108C136.043 29.108 135.563 28.968 135.139 28.688C134.723 28.4 134.391 28.008 134.143 27.512C133.895 27.008 133.771 26.44 133.771 25.808C133.771 25.16 133.895 24.588 134.143 24.092C134.391 23.596 134.731 23.208 135.163 22.928C135.595 22.64 136.087 22.496 136.639 22.496C136.943 22.496 137.219 22.54 137.467 22.628C137.723 22.716 137.947 22.84 138.139 23C138.331 23.152 138.495 23.332 138.631 23.54C138.767 23.74 138.867 23.956 138.931 24.188L138.535 24.14V22.628H140.443V29H138.499V27.464L138.931 27.452C138.867 27.676 138.763 27.888 138.619 28.088C138.475 28.288 138.299 28.464 138.091 28.616C137.883 28.768 137.651 28.888 137.395 28.976C137.139 29.064 136.867 29.108 136.579 29.108ZM137.107 27.488C137.403 27.488 137.659 27.42 137.875 27.284C138.091 27.148 138.259 26.956 138.379 26.708C138.499 26.452 138.559 26.152 138.559 25.808C138.559 25.464 138.499 25.168 138.379 24.92C138.259 24.664 138.091 24.468 137.875 24.332C137.659 24.188 137.403 24.116 137.107 24.116C136.819 24.116 136.567 24.188 136.351 24.332C136.143 24.468 135.979 24.664 135.859 24.92C135.739 25.168 135.679 25.464 135.679 25.808C135.679 26.152 135.739 26.452 135.859 26.708C135.979 26.956 136.143 27.148 136.351 27.284C136.567 27.42 136.819 27.488 137.107 27.488ZM142.137 29V22.628H143.961L144.021 23.924L143.637 24.068C143.725 23.78 143.881 23.52 144.105 23.288C144.337 23.048 144.613 22.856 144.933 22.712C145.253 22.568 145.589 22.496 145.941 22.496C146.421 22.496 146.825 22.596 147.153 22.796C147.481 22.988 147.729 23.28 147.897 23.672C148.065 24.056 148.149 24.528 148.149 25.088V29H146.217V25.244C146.217 24.988 146.181 24.776 146.109 24.608C146.037 24.44 145.925 24.316 145.773 24.236C145.629 24.148 145.449 24.108 145.233 24.116C145.065 24.116 144.909 24.144 144.765 24.2C144.621 24.248 144.497 24.324 144.393 24.428C144.289 24.524 144.205 24.636 144.141 24.764C144.085 24.892 144.057 25.032 144.057 25.184V29H143.109C142.885 29 142.693 29 142.533 29C142.373 29 142.241 29 142.137 29ZM152.55 29.12C151.934 29.12 151.382 28.976 150.894 28.688C150.406 28.4 150.018 28.008 149.73 27.512C149.45 27.008 149.31 26.44 149.31 25.808C149.31 25.176 149.45 24.612 149.73 24.116C150.018 23.612 150.406 23.216 150.894 22.928C151.382 22.64 151.934 22.496 152.55 22.496C153.118 22.496 153.638 22.596 154.11 22.796C154.59 22.996 154.97 23.276 155.25 23.636L154.206 24.884C154.094 24.756 153.962 24.636 153.81 24.524C153.658 24.412 153.49 24.324 153.306 24.26C153.122 24.196 152.93 24.164 152.73 24.164C152.426 24.164 152.158 24.236 151.926 24.38C151.694 24.516 151.514 24.708 151.386 24.956C151.258 25.204 151.194 25.488 151.194 25.808C151.194 26.112 151.258 26.388 151.386 26.636C151.522 26.884 151.706 27.08 151.938 27.224C152.17 27.368 152.434 27.44 152.73 27.44C152.938 27.44 153.13 27.416 153.306 27.368C153.482 27.312 153.642 27.232 153.786 27.128C153.938 27.024 154.078 26.896 154.206 26.744L155.238 28.004C154.966 28.348 154.586 28.62 154.098 28.82C153.618 29.02 153.102 29.12 152.55 29.12ZM159.329 29.12C158.625 29.12 158.013 28.98 157.493 28.7C156.973 28.412 156.569 28.024 156.281 27.536C155.993 27.04 155.849 26.476 155.849 25.844C155.849 25.356 155.929 24.908 156.089 24.5C156.249 24.092 156.473 23.74 156.761 23.444C157.049 23.14 157.389 22.908 157.781 22.748C158.181 22.58 158.617 22.496 159.089 22.496C159.537 22.496 159.945 22.576 160.313 22.736C160.689 22.896 161.013 23.12 161.285 23.408C161.557 23.696 161.765 24.036 161.909 24.428C162.053 24.82 162.117 25.248 162.101 25.712L162.089 26.228H157.013L156.737 25.148H160.529L160.325 25.376V25.136C160.309 24.936 160.245 24.76 160.133 24.608C160.029 24.448 159.889 24.324 159.713 24.236C159.537 24.148 159.337 24.104 159.113 24.104C158.801 24.104 158.533 24.168 158.309 24.296C158.093 24.416 157.929 24.596 157.817 24.836C157.705 25.068 157.649 25.356 157.649 25.7C157.649 26.052 157.721 26.36 157.865 26.624C158.017 26.88 158.233 27.08 158.513 27.224C158.801 27.368 159.141 27.44 159.533 27.44C159.805 27.44 160.045 27.4 160.253 27.32C160.469 27.24 160.701 27.104 160.949 26.912L161.849 28.184C161.601 28.4 161.337 28.576 161.057 28.712C160.777 28.848 160.489 28.948 160.193 29.012C159.905 29.084 159.617 29.12 159.329 29.12Z" fill="white"/>
</svg>
