<svg width="27" height="29" viewBox="0 0 27 29" fill="none" xmlns="http://www.w3.org/2000/svg">
<path d="M13.2305 14.75C16.0195 14.75 18.293 12.2656 18.293 9.24219C18.293 6.24219 16.0312 3.88672 13.2305 3.88672C10.4531 3.88672 8.16797 6.28906 8.16797 9.26562C8.17969 12.2773 10.4414 14.75 13.2305 14.75ZM13.2305 12.9805C11.5195 12.9805 10.0547 11.3398 10.0547 9.26562C10.0547 7.22656 11.4961 5.65625 13.2305 5.65625C14.9766 5.65625 16.4062 7.20312 16.4062 9.24219C16.4062 11.3164 14.9531 12.9805 13.2305 12.9805ZM5.85938 25.5898H20.5898C22.5352 25.5898 23.4609 25.0039 23.4609 23.7148C23.4609 20.6445 19.582 16.2031 13.2305 16.2031C6.86719 16.2031 2.98828 20.6445 2.98828 23.7148C2.98828 25.0039 3.91406 25.5898 5.85938 25.5898ZM5.30859 23.8203C5.00391 23.8203 4.875 23.7383 4.875 23.4922C4.875 21.5703 7.85156 17.9727 13.2305 17.9727C18.5977 17.9727 21.5742 21.5703 21.5742 23.4922C21.5742 23.7383 21.457 23.8203 21.1523 23.8203H5.30859Z" fill="#FFC857"/>
</svg>
