<svg width="22" height="22" viewBox="0 0 22 22" fill="none" xmlns="http://www.w3.org/2000/svg">
<path d="M3.51928 3.52201L3.51927 3.522L3.51752 3.52376C-0.178627 7.25688 -0.178633 13.3177 3.55439 17.0508C5.40446 18.9008 7.80933 19.7877 10.2463 19.7877C12.7204 19.7877 15.1609 18.8642 17.0103 17.0148C20.7435 13.2816 20.7435 7.25606 17.0103 3.52288C13.3126 -0.174777 7.25176 -0.173519 3.51928 3.52201ZM4.55489 4.56132L4.5549 4.56133L4.55684 4.55937C7.69787 1.38344 12.8661 1.38169 16.0448 4.52433C19.187 7.70244 19.1868 12.8359 16.0443 16.0139C12.8663 19.1913 7.73364 19.1911 4.55587 16.0133L4.55489 16.0123C1.37824 12.8706 1.37824 7.70307 4.55489 4.56132Z" fill="#FFC857" stroke="#FFC857" stroke-width="0.5"/>
<path d="M20.5411 21.0132L20.5058 21.2607L20.5233 21.2632H20.5411C20.7161 21.2632 20.8875 21.2003 21.0418 21.046C21.3195 20.7684 21.3195 20.3221 21.0418 20.0445L17.0463 16.049C16.7687 15.7714 16.3225 15.7714 16.0449 16.049C15.7673 16.3266 15.7673 16.7729 16.0449 17.0505L20.0273 21.0329C20.0745 21.0929 20.1331 21.1318 20.1777 21.1563C20.2311 21.1857 20.2863 21.2062 20.3316 21.2203C20.3778 21.2348 20.4201 21.2446 20.4505 21.2508C20.4659 21.254 20.4788 21.2563 20.4882 21.2579L20.4998 21.2598L20.5035 21.2604L20.5048 21.2606L20.5053 21.2606L20.5056 21.2607L20.5057 21.2607L20.5411 21.0132Z" fill="#FFC857" stroke="#FFC857" stroke-width="0.5"/>
</svg>
