<svg width="32" height="32" viewBox="0 0 32 32" fill="none" xmlns="http://www.w3.org/2000/svg">
<circle cx="16" cy="16" r="15" stroke="black" stroke-width="2"/>
<path d="M7.0201 25.0013C7.97893 24.025 8.71215 22.9648 9.25078 21.7703C9.66815 20.8443 9.52715 20.1422 8.75727 19.482C7.50233 18.4022 6.56325 17.1182 6.18818 15.4929C5.61852 13.0284 6.36866 10.9219 8.08045 9.12878C9.64559 7.4867 11.6281 6.57755 13.8447 6.1999C16.8171 5.69356 19.6456 6.12716 22.2203 7.75246C24.1831 8.98891 25.5565 10.673 25.9174 13.02C26.2389 15.1152 25.6016 16.9531 24.2113 18.5309C22.4995 20.4695 20.2801 21.4598 17.7477 21.829C17.3952 21.8794 17.0286 21.8542 16.6873 21.9381C16.3207 22.0276 15.9259 22.1367 15.6354 22.3577C13.7967 23.7452 11.6732 24.3914 9.43973 24.7411C8.63882 24.867 7.82664 24.9174 7.0201 25.0013Z" fill="black"/>
</svg>
