<svg width="32" height="32" viewBox="0 0 32 32" fill="none" xmlns="http://www.w3.org/2000/svg">
<path d="M15.9793 22.9989C13.277 22.9989 10.5746 23.0013 7.87223 22.9989C6.53327 22.9989 6.00794 22.491 6.0055 21.1656C5.99817 17.7167 5.99817 14.2726 6.0055 10.8261C6.00794 9.51516 6.54793 9 7.88445 9C13.2892 9 18.6939 9 24.0987 9.00242C25.4841 9.00242 25.9972 9.51033 25.9972 10.8744C26.0021 14.2968 25.9996 17.7191 25.9972 21.1414C25.9972 22.5031 25.489 22.9941 24.084 22.9965C21.3816 23.0013 18.6793 22.9965 15.9769 22.9965L15.9793 22.9989ZM25.2055 9.79572C24.7559 9.70865 24.5092 9.61916 24.2624 9.61916C18.7599 9.60949 13.2599 9.60949 7.7574 9.61916C7.4984 9.61916 7.2394 9.72558 6.87534 9.80782C7.07325 10.0327 7.15633 10.1464 7.2565 10.2407C9.47509 12.3353 11.6815 14.4467 13.9245 16.517C15.6715 18.1278 16.3141 18.1303 18.0635 16.5316C19.8692 14.8796 21.6284 13.1794 23.4072 11.5008C23.9496 10.9881 24.4896 10.4754 25.2031 9.80056L25.2055 9.79572ZM6.7776 22.2177C7.26139 22.3024 7.51306 22.3846 7.76717 22.3846C13.2648 22.3919 18.7648 22.3919 24.2624 22.3846C24.5165 22.3846 24.7731 22.2733 25.1811 22.1766C23.0749 20.1909 21.1129 18.3383 19.0458 16.3913C17.0202 18.9671 14.9482 18.8945 12.9447 16.401C10.88 18.3504 8.91556 20.203 6.77516 22.2201L6.7776 22.2177ZM19.5467 16.0019C21.4818 17.8231 23.351 19.5838 25.3155 21.4317V10.5648C23.3388 12.4296 21.4794 14.1831 19.5467 16.0043V16.0019ZM6.69209 10.5697V21.4365C8.6761 19.5645 10.5453 17.8013 12.4584 15.9995C10.5111 14.1662 8.65411 12.4175 6.69209 10.5697Z" fill="black" stroke="black"/>
<circle cx="16" cy="16" r="15" stroke="black" stroke-width="2"/>
</svg>
