<svg width="32" height="32" viewBox="0 0 32 32" fill="none" xmlns="http://www.w3.org/2000/svg">
<path d="M11.2813 14.5612C12.825 17.3587 15.0517 19.4808 17.9948 20.9509C18.2183 20.6809 18.4419 20.4117 18.6642 20.1417C18.9261 19.8239 19.1843 19.5035 19.4478 19.1869C19.9019 18.6418 20.5548 18.4935 21.2093 18.8093C22.5575 19.46 23.9033 20.1166 25.2428 20.7834C26.0058 21.1634 26.2191 21.9491 25.7592 22.6421C25.2152 23.4619 24.6671 24.2798 24.1078 25.0906C23.615 25.8047 22.899 26.0594 22.0176 25.9886C20.8319 25.8935 19.6746 25.6971 18.5553 25.2952C16.7711 24.6546 15.1363 23.7683 13.6363 22.6582C10.9868 20.6966 8.84672 18.3303 7.36692 15.4526C6.8254 14.3992 6.38245 13.3075 6.18325 12.1441C6.09128 11.6065 6.02364 11.061 6.00178 10.5171C5.97291 9.8033 6.29625 9.23121 6.92562 8.83129C7.76244 8.29911 8.60379 7.7728 9.44556 7.24767C10.1925 6.78162 11.0549 6.98823 11.4669 7.74189C12.1639 9.01638 12.8526 10.2952 13.5385 11.5751C13.8392 12.1367 13.6845 12.7745 13.1591 13.1682C12.5994 13.5876 12.034 13.9997 11.471 14.4157C11.412 14.4591 11.3547 14.5049 11.2805 14.562L11.2813 14.5612Z" fill="black"/>
<circle cx="16" cy="16" r="15" stroke="black" stroke-width="2"/>
</svg>
