<svg width="5" height="23" viewBox="0 0 5 23" fill="none" xmlns="http://www.w3.org/2000/svg">
<path d="M4.89453 20.5586C4.89453 19.2344 3.85156 18.1797 2.55078 18.1797C1.25 18.1797 0.207031 19.2344 0.207031 20.5586C0.207031 21.8477 1.25 22.9023 2.55078 22.9023C3.85156 22.9023 4.89453 21.8477 4.89453 20.5586ZM4.89453 11.8516C4.89453 10.5508 3.85156 9.50781 2.55078 9.50781C1.25 9.50781 0.207031 10.5508 0.207031 11.8516C0.207031 13.1406 1.25 14.1836 2.55078 14.1836C3.85156 14.1836 4.89453 13.1406 4.89453 11.8516ZM4.89453 3.14453C4.89453 1.84375 3.85156 0.800781 2.55078 0.800781C1.25 0.800781 0.20703 1.84375 0.20703 3.14453C0.20703 4.46875 1.25 5.51172 2.55078 5.51172C3.85156 5.51172 4.89453 4.46875 4.89453 3.14453Z" fill="#FFC857"/>
</svg>
